<svg width="46" height="61" viewBox="0 0 46 61" fill="none" xmlns="http://www.w3.org/2000/svg">
<path d="M0 22.0042L5.97565 13.0653L5.91612 7.319L7.0055 7.90953C7.57946 8.2205 8.46136 8.37824 9.62735 8.37824C10.5796 8.37824 11.5449 8.27877 12.3964 8.19111C12.674 8.16247 12.9337 8.13585 13.1688 8.115L15.1632 7.93967L12.2437 10.8637L15.2044 14.5963L13.0573 14.0085C12.7815 13.9329 12.5624 13.8309 12.369 13.741C12.1844 13.6551 12.0387 13.5873 11.8915 13.5659C11.1952 13.4657 10.445 13.419 9.5309 13.419C8.9268 13.419 8.32346 13.4386 7.71987 13.4582L7.71133 13.4587L14.0097 22.0042H0Z" fill="#F1DE3A"/>
<path d="M1.36328 21.2749H12.5655L6.73063 13.3586L6.77647 13.0486C6.96552 13.0089 6.97836 12.752 7.16568 12.7464C8.77319 12.6983 10.3745 12.611 11.9943 12.8444C12.4505 12.91 12.761 13.1718 13.2485 13.3053L11.2677 10.8082L13.2314 8.84134C11.4891 8.99472 8.38175 9.48547 6.65694 8.55069L6.70623 13.3256L6.69113 13.3051L1.36328 21.2749Z" fill="#F1DE3A"/>
<path d="M30.5859 21.9871L36.5254 13.1018L36.4679 7.5079L37.5568 8.09793C38.131 8.40865 39.0131 8.56639 40.1791 8.56639C41.1321 8.56639 42.0979 8.46692 42.9502 8.37901C43.227 8.35062 43.486 8.324 43.7203 8.3034L45.7152 8.12757L42.7955 11.0518L45.7569 14.7854L43.6088 14.1964C43.3332 14.1211 43.1145 14.0193 42.9215 13.9294C42.7367 13.8435 42.591 13.7757 42.4433 13.7543C41.7465 13.6539 40.9965 13.6071 40.0827 13.6071C39.5361 13.6071 38.99 13.6232 38.444 13.641L44.5959 21.9871H30.5859Z" fill="#F1DE3A"/>
<path d="M43.1514 21.2579L37.3132 13.3373L37.328 13.2368C37.5173 13.1971 37.5302 12.9402 37.7175 12.9347C39.325 12.8866 40.9261 12.7992 42.5459 13.0326C43.0023 13.0983 43.3128 13.3599 43.8003 13.4935L41.8194 10.9964L43.7832 9.02954C42.0407 9.18295 38.9335 9.67351 37.2085 8.73895L37.2558 13.3195L31.9492 21.2579H43.1514Z" fill="#F1DE3A"/>
<path d="M12.457 22.021L21.2253 5.72726L21.1663 3.05176e-05L22.2554 0.59006C22.8291 0.900774 23.7111 1.05852 24.8768 1.05852C25.829 1.05852 26.7946 0.959048 27.6463 0.871385C27.9239 0.84275 28.1836 0.816125 28.4187 0.795277L30.4131 0.619951L27.4936 3.54398L30.4551 7.27756L28.307 6.68854C28.0314 6.61318 27.8126 6.51146 27.6197 6.42153C27.4348 6.33563 27.2892 6.26781 27.1415 6.24646C26.4447 6.14598 25.6944 6.09926 24.7806 6.09926C24.1757 6.09926 23.5714 6.11911 22.9665 6.13895L22.9068 6.14071L32.1591 22.021H12.457Z" fill="#F1DE3A"/>
<path d="M13.6758 21.2918H30.889L21.9846 6.0089L22.0261 5.72896C22.2151 5.68927 22.2279 5.43237 22.4153 5.42681C24.0228 5.37871 25.6239 5.29136 27.2437 5.52478C27.7001 5.59043 28.0106 5.852 28.4981 5.98563L26.5172 3.48856L28.481 1.52167C26.7385 1.67508 23.6313 2.16564 21.9065 1.23108L21.9553 5.95863L21.9407 5.93354L13.6758 21.2918Z" fill="#F1DE3A"/>
<path d="M21.5202 59.5634L21.4966 59.5227C19.0314 54.98 14.4956 53.906 10.1094 52.8671C6.36653 51.9809 2.83162 51.1437 0.677727 48.281L0.532292 48.0881L0.390625 21.0286L22.1368 21.0107L43.8858 21.0278L43.7441 48.0875L43.5987 48.2805C41.4448 51.1429 37.9099 51.9801 34.1672 52.8663C29.8328 53.8926 25.3522 54.9539 22.8685 59.3622L22.1978 60.4044L21.5202 59.5634Z" fill="#F1DE3A"/>
<path d="M22.1387 21.74L1.125 21.757L1.26158 47.8427C5.74213 53.7976 17.4136 50.4673 22.1387 59.175V59.1777L22.1394 59.1764L22.1407 59.1784V59.1741C26.8654 50.4666 38.537 53.7967 43.0176 47.842L43.1542 21.7563L22.1387 21.7391V21.74Z" fill="#F1DE3A"/>
<path fill-rule="evenodd" clip-rule="evenodd" d="M1.36719 21.275H12.5694L6.69502 13.3051L1.36719 21.275Z" fill="#DF000F"/>
<path fill-rule="evenodd" clip-rule="evenodd" d="M31.9492 21.2579H43.1514L37.2768 13.288L31.9492 21.2579Z" fill="#DF000F"/>
<path fill-rule="evenodd" clip-rule="evenodd" d="M13.6797 21.2919H30.8929L21.9446 5.93359L13.6797 21.2919Z" fill="#DF000F"/>
<path fill-rule="evenodd" clip-rule="evenodd" d="M6.71136 13.5106L6.77967 13.0487C6.96872 13.009 6.98157 12.7521 7.16889 12.7465C8.77641 12.6984 10.3778 12.6111 11.9975 12.8445C12.4537 12.9101 12.7642 13.1719 13.2517 13.3054L11.2709 10.8083L13.2346 8.84145C11.4923 8.99482 8.38496 9.48558 6.66016 8.55081L6.71136 13.5106Z" fill="#DF000F"/>
<path fill-rule="evenodd" clip-rule="evenodd" d="M21.9614 6.19067L22.0297 5.72896C22.2187 5.68926 22.2316 5.43236 22.4189 5.42681C24.0264 5.37871 25.6275 5.29136 27.2473 5.52478C27.7037 5.59041 28.0142 5.85199 28.5017 5.98564L26.5209 3.48856L28.4846 1.52167C26.7421 1.67509 23.635 2.16563 21.9102 1.23108L21.9614 6.19067Z" fill="#DF000F"/>
<path fill-rule="evenodd" clip-rule="evenodd" d="M37.2622 13.6988L37.3305 13.2368C37.5197 13.1972 37.5326 12.9402 37.7199 12.9347C39.3274 12.8866 40.9285 12.7992 42.5483 13.0327C43.0047 13.0983 43.3152 13.3599 43.8027 13.4935L41.8219 10.9964L43.7856 9.02954C42.0431 9.18296 38.936 9.67351 37.2109 8.73895L37.2622 13.6988Z" fill="#DF000F"/>
<path fill-rule="evenodd" clip-rule="evenodd" d="M22.1387 21.7392L43.1542 21.7564L43.0176 47.8422C38.537 53.7968 26.8653 50.4667 22.1407 59.1743V59.1785L22.1394 59.1765L22.1387 59.1778V59.1751C17.4136 50.4674 5.74213 53.7977 1.26156 47.8428L1.125 21.7571L22.1387 21.7401V21.7392Z" fill="#DF000F"/>
<path fill-rule="evenodd" clip-rule="evenodd" d="M12.301 32.8199V32.9737V32.9908C12.301 33.1078 12.3839 33.2056 12.4936 33.229C12.5246 33.2432 12.5588 33.251 12.5956 33.251C12.6326 33.251 12.6665 33.2514 12.6969 33.2495C12.7656 33.255 12.8365 33.251 12.9201 33.251C13.0526 33.251 13.1599 33.1455 13.1632 33.0141L13.1708 33.001L13.1818 32.9881C13.2235 32.9444 13.2486 32.885 13.2486 32.8199V32.7578V32.7514C13.2486 32.7059 13.2368 32.6642 13.2151 32.6279C13.2018 32.5938 13.1801 32.5634 13.1537 32.5388L13.1433 32.5279L13.1349 32.5197L13.1307 32.5157L13.1298 32.5146L13.1202 32.5055L13.1091 32.4938L13.1007 32.4856L13.0965 32.4816L13.0956 32.4805L13.0859 32.4712C13.0613 32.4437 13.0307 32.422 12.9957 32.4073C12.9591 32.385 12.915 32.3714 12.8687 32.3714C12.7494 32.3714 12.6554 32.3776 12.5789 32.4224C12.4867 32.4448 12.4167 32.4962 12.3606 32.6091C12.3513 32.6277 12.3457 32.6485 12.3415 32.6696C12.3163 32.7079 12.301 32.7531 12.301 32.8026V32.8199ZM10.8195 32.529C10.1452 32.529 10.2527 33.6567 10.495 34.0683C10.7539 34.5076 12.0547 34.5637 12.5956 34.7524C12.9562 34.8783 14.6617 37.2563 14.6617 35.4535C14.6617 34.8488 14.5052 34.7353 15.174 34.7353C16.1081 34.7353 16.7815 34.9242 16.0108 33.8118C15.0197 32.3818 14.9949 32.0598 13.2444 31.2804C11.608 30.5522 10.8707 30.3709 10.8195 32.529Z" fill="#F1DE3A"/>
<path fill-rule="evenodd" clip-rule="evenodd" d="M4.4414 34.2335C5.64287 36.5051 9.1093 33.7473 9.2709 32.6406C9.35135 32.0893 8.66485 34.18 9.96519 34.18C11.5175 34.18 9.43005 34.6141 8.95704 35.372C7.53969 37.6425 9.07718 40.3859 8.97787 40.2688C8.69145 39.9308 6.89528 37.0205 6.37902 37.4406C6.24091 37.5532 5.97471 38.0894 5.80799 38.0894C5.76544 38.0894 4.75464 36.6299 4.20977 36.4311C3.8919 36.3154 3.86595 37.414 3.74316 36.2159C3.64875 35.2924 4.0996 34.5739 4.48132 34.061C6.00704 34.061 6.82346 33.8243 8.07833 32.9802C8.89626 32.4302 9.61381 32.0618 10.2879 31.3848C10.9339 30.7358 10.0068 30.8703 9.55131 30.8703C8.20888 30.8703 7.33244 31.0936 6.20834 31.7355C5.53449 32.1205 5.1654 32.5058 4.65732 33.2042C4.52786 33.3821 4.39931 34.3738 4.4414 34.2335Z" fill="#F1DE3A"/>
<path d="M4.4414 34.2335C5.64287 36.5051 9.1093 33.7473 9.2709 32.6406C9.35135 32.0893 8.66485 34.18 9.96519 34.18C11.5175 34.18 9.43005 34.6141 8.95704 35.372C7.53969 37.6425 9.07718 40.3859 8.97787 40.2688C8.69145 39.9308 6.89528 37.0205 6.37902 37.4406C6.24091 37.5532 5.97471 38.0894 5.80799 38.0894C5.76545 38.0894 4.75464 36.6299 4.20977 36.4311C3.8919 36.3154 3.86595 37.414 3.74316 36.2159C3.64875 35.2924 4.0996 34.5739 4.48132 34.061C6.00704 34.061 6.82346 33.8243 8.07833 32.9802C8.89626 32.4302 9.61381 32.0618 10.2879 31.3848C10.9339 30.7358 10.0068 30.8703 9.55131 30.8703C8.20888 30.8703 7.33244 31.0936 6.20834 31.7355C5.53449 32.1205 5.1654 32.5058 4.65732 33.2042C4.52786 33.3821 4.39931 34.3738 4.4414 34.2335Z" stroke="#F1DE3A" stroke-width="0.0339044" stroke-miterlimit="22.9256"/>
<path fill-rule="evenodd" clip-rule="evenodd" d="M3.80139 37.181C4.4757 38.3707 5.48495 40.3619 7.25073 40.9092C7.9847 41.1366 8.5901 40.9861 8.85607 40.2936C8.9977 39.925 9.61261 41.1178 10.1881 41.183C11.5123 41.3333 13.2671 40.3581 12.9374 40.0369C12.1257 39.2465 11.8672 37.0039 12.2372 36.8731C12.9439 36.6237 13.6033 38.804 13.6033 39.3014C13.6033 40.1327 14.236 39.0139 15.0719 38.4809C15.6342 38.1217 16.3052 37.8947 16.4881 38.0284C16.7687 38.2337 15.8293 40.1899 14.3035 40.328C14.236 40.334 14.1129 40.2983 14.1007 40.3674C13.8015 42.0581 10.8535 43.5524 7.0118 42.2261C5.19213 41.5981 3.767 39.3868 3.80139 37.181Z" fill="#F1DE3A"/>
<path d="M3.80139 37.181C4.4757 38.3707 5.48495 40.3619 7.25073 40.9092C7.9847 41.1366 8.5901 40.9861 8.85607 40.2936C8.9977 39.925 9.61261 41.1178 10.1881 41.183C11.5123 41.3333 13.2671 40.3581 12.9374 40.0369C12.1257 39.2465 11.8672 37.0039 12.2372 36.8731C12.9439 36.6237 13.6033 38.804 13.6033 39.3014C13.6033 40.1327 14.236 39.0139 15.0719 38.4809C15.6342 38.1217 16.3052 37.8947 16.4881 38.0284C16.7687 38.2337 15.8293 40.1899 14.3035 40.328C14.236 40.334 14.1129 40.2983 14.1007 40.3674C13.8015 42.0581 10.8535 43.5524 7.0118 42.2261C5.19213 41.5981 3.767 39.3868 3.80139 37.181Z" stroke="#F1DE3A" stroke-width="0.0339044" stroke-miterlimit="22.9256"/>
<path fill-rule="evenodd" clip-rule="evenodd" d="M7.69574 30.1004L9.48884 30.0322C9.48307 29.0402 9.47754 28.0483 9.47176 27.0563C9.46619 26.4347 8.81143 28.1396 8.48132 28.6809L7.09814 27.5863C6.78513 27.3243 7.54766 29.2852 7.69574 30.1004Z" fill="#F1DE3A"/>
<path d="M7.69574 30.1004L9.48884 30.0322C9.48307 29.0402 9.47754 28.0483 9.47176 27.0563C9.46619 26.4347 8.81143 28.1396 8.48132 28.6809L7.09814 27.5863C6.78513 27.3243 7.54766 29.2852 7.69574 30.1004Z" stroke="#F1DE3A" stroke-width="0.0339044" stroke-miterlimit="22.9256"/>
<path fill-rule="evenodd" clip-rule="evenodd" d="M11.1563 30.1004L9.36328 30.0322C9.36902 29.0402 9.37482 28.0483 9.38033 27.0563C9.38612 26.4347 10.0407 28.1396 10.371 28.6809L11.7542 27.5863C12.067 27.3243 11.3044 29.2852 11.1563 30.1004Z" fill="#F1DE3A"/>
<path d="M11.1563 30.1004L9.36328 30.0322C9.36902 29.0402 9.37482 28.0483 9.38033 27.0563C9.38612 26.4347 10.0407 28.1396 10.371 28.6809L11.7542 27.5863C12.067 27.3243 11.3044 29.2852 11.1563 30.1004Z" stroke="#F1DE3A" stroke-width="0.0339044" stroke-miterlimit="22.9256"/>
<path d="M29.7929 42.7502H31.0972L30.6954 41.6857C30.5734 41.3625 30.4823 41.0967 30.4232 40.8881C30.3739 41.1351 30.305 41.3796 30.2154 41.6232L29.7929 42.7502ZM28.6835 44.3295L30.1609 40.4843H30.7086L32.2827 44.3295H31.7026L31.2539 43.1649H29.646L29.2244 44.3295H28.6835ZM26.2314 43.8971H27.2486C27.5235 43.8971 27.7292 43.8408 27.8662 43.7288C28.0043 43.6171 28.0724 43.4495 28.0724 43.2256C28.0724 43.0663 28.0329 42.933 27.954 42.8264C27.8762 42.72 27.766 42.6491 27.6263 42.6143C27.4867 42.5793 27.2475 42.5615 26.9101 42.5615H26.2314V43.8971ZM25.7222 40.4843H28.2164V40.9382H26.2314V42.1235H27.1493C27.4885 42.1235 27.758 42.1559 27.9586 42.2213C28.1581 42.2855 28.3193 42.4075 28.4394 42.5866C28.5602 42.7654 28.621 42.9741 28.621 43.2123C28.621 43.4065 28.5771 43.5874 28.4911 43.7568C28.4044 43.9247 28.2754 44.0629 28.1036 44.1693C27.9327 44.2759 27.6408 44.3295 27.228 44.3295H25.7222V40.4843ZM24.329 40.4843H24.8375V44.3295H24.329V40.4843ZM21.4786 43.8971H22.4096C22.7293 43.8971 22.9611 43.8434 23.1052 43.7353C23.2502 43.6277 23.3218 43.4557 23.3218 43.2203C23.3218 43.0592 23.2781 42.9248 23.1912 42.8166C23.1034 42.7074 22.9908 42.6384 22.8527 42.6087C22.7142 42.5793 22.4841 42.5642 22.1598 42.5642H21.4786V43.8971ZM20.969 40.4843H21.4786V42.1264H22.3963C22.9979 42.1264 23.3934 42.2372 23.5833 42.4593C23.7731 42.6814 23.868 42.933 23.868 43.215C23.868 43.5123 23.766 43.7718 23.5636 43.9948C23.3606 44.2176 22.9835 44.3295 22.4329 44.3295H20.969V40.4843ZM17.8688 42.3126H18.8634C19.1921 42.3126 19.4255 42.2516 19.5636 42.129C19.7013 42.0064 19.7704 41.8344 19.7704 41.6123C19.7704 41.4512 19.7301 41.3135 19.6485 41.1989C19.567 41.0841 19.4605 41.0092 19.3271 40.9721C19.2411 40.95 19.0837 40.9382 18.8527 40.9382H17.8688V42.3126ZM17.3602 44.3295V40.4843H18.8106C19.0657 40.4843 19.2608 40.4969 19.3952 40.5211C19.584 40.5523 19.7427 40.6124 19.8706 40.701C19.9977 40.7886 20.1007 40.9132 20.1785 41.0717C20.2566 41.2311 20.2949 41.4055 20.2949 41.5964C20.2949 41.9231 20.1912 42.2006 19.9835 42.427C19.7749 42.6526 19.3989 42.7665 18.8551 42.7665H17.8688V44.3295H17.3602ZM35.6292 38.3285V34.4835H36.1386V36.0626H38.137V34.4835H38.6464V38.3285H38.137V36.5166H36.1386V38.3285H35.6292ZM31.7607 34.4835H32.222V37.5281L34.2675 34.4835H34.7796V38.3285H34.3176V35.291L32.2692 38.3285H31.7607V34.4835ZM28.5075 34.4835H30.9157V38.3285H30.4063V34.9373H29.0169V36.9176C29.0169 37.3197 28.998 37.6141 28.9603 37.8014C28.9229 37.9883 28.8433 38.1344 28.7232 38.2383C28.6024 38.3421 28.4492 38.394 28.2639 38.394C28.1519 38.394 28.0178 38.3735 27.8602 38.3314L27.9462 37.8801C28.0302 37.9151 28.102 37.9328 28.1619 37.9328C28.2774 37.9328 28.3634 37.889 28.4215 37.8032C28.4787 37.7161 28.5075 37.5121 28.5075 37.1907V34.4835ZM25.2128 36.7494H26.5171L26.1153 35.6849C25.9933 35.3615 25.9022 35.096 25.843 34.8874C25.7938 35.1343 25.7249 35.3788 25.6353 35.6222L25.2128 36.7494ZM24.1036 38.3285L25.5808 34.4835H26.1286L27.7026 38.3285H27.1225L26.674 37.1639H25.0659L24.6442 38.3285H24.1036ZM20.552 38.3285L22.0399 36.3251L20.7282 34.4835H21.3336L22.0319 35.4701C22.1769 35.6741 22.2799 35.8317 22.3407 35.9418C22.4267 35.8022 22.5277 35.6563 22.645 35.504L23.4195 34.4835H23.9728L22.6217 36.2956L24.0774 38.3285H23.4481L22.4803 36.9571C22.4258 36.8784 22.3704 36.7924 22.3121 36.7001C22.2261 36.8398 22.1653 36.9356 22.1286 36.9886L21.1634 38.3285H20.552ZM18.047 36.7494H19.3512L18.9494 35.6849C18.8275 35.3615 18.7363 35.096 18.6772 34.8874C18.6279 35.1343 18.559 35.3788 18.4695 35.6222L18.047 36.7494ZM16.9375 38.3285L18.4149 34.4835H18.9627L20.5367 38.3285H19.9566L19.508 37.1639H17.9L17.4784 38.3285H16.9375Z" fill="#F1DE3A"/>
<path d="M29.7929 42.7502H31.0972L30.6954 41.6857C30.5734 41.3625 30.4823 41.0967 30.4232 40.8881C30.3739 41.1351 30.305 41.3796 30.2154 41.6232L29.7929 42.7502ZM28.6835 44.3295L30.1609 40.4843H30.7086L32.2827 44.3295H31.7026L31.2539 43.1649H29.646L29.2244 44.3295H28.6835ZM26.2314 43.8971H27.2486C27.5235 43.8971 27.7292 43.8408 27.8662 43.7288C28.0043 43.6171 28.0724 43.4495 28.0724 43.2256C28.0724 43.0663 28.0329 42.933 27.954 42.8264C27.8762 42.72 27.766 42.6491 27.6263 42.6143C27.4867 42.5793 27.2475 42.5615 26.9101 42.5615H26.2314V43.8971ZM25.7222 40.4843H28.2164V40.9382H26.2314V42.1235H27.1493C27.4885 42.1235 27.758 42.1559 27.9586 42.2213C28.1581 42.2855 28.3193 42.4075 28.4394 42.5866C28.5602 42.7654 28.621 42.9741 28.621 43.2123C28.621 43.4065 28.5771 43.5874 28.4911 43.7568C28.4044 43.9247 28.2754 44.0629 28.1036 44.1693C27.9327 44.2759 27.6408 44.3295 27.228 44.3295H25.7222V40.4843ZM24.329 40.4843H24.8375V44.3295H24.329V40.4843ZM21.4786 43.8971H22.4096C22.7293 43.8971 22.9611 43.8434 23.1052 43.7353C23.2502 43.6277 23.3218 43.4557 23.3218 43.2203C23.3218 43.0592 23.2781 42.9248 23.1912 42.8166C23.1034 42.7074 22.9908 42.6384 22.8527 42.6087C22.7142 42.5793 22.4841 42.5642 22.1598 42.5642H21.4786V43.8971ZM20.969 40.4843H21.4786V42.1264H22.3963C22.9979 42.1264 23.3934 42.2372 23.5833 42.4593C23.7731 42.6814 23.868 42.933 23.868 43.215C23.868 43.5123 23.766 43.7718 23.5636 43.9948C23.3606 44.2176 22.9835 44.3295 22.4329 44.3295H20.969V40.4843ZM17.8688 42.3126H18.8634C19.1921 42.3126 19.4255 42.2516 19.5636 42.129C19.7013 42.0064 19.7704 41.8344 19.7704 41.6123C19.7704 41.4512 19.7301 41.3135 19.6485 41.1989C19.567 41.0841 19.4605 41.0092 19.3271 40.9721C19.2411 40.95 19.0837 40.9382 18.8527 40.9382H17.8688V42.3126ZM17.3602 44.3295V40.4843H18.8106C19.0657 40.4843 19.2608 40.4969 19.3952 40.5211C19.584 40.5523 19.7427 40.6124 19.8706 40.701C19.9977 40.7886 20.1007 40.9132 20.1785 41.0717C20.2566 41.2311 20.2949 41.4055 20.2949 41.5964C20.2949 41.9231 20.1912 42.2006 19.9835 42.427C19.7749 42.6526 19.3989 42.7665 18.8551 42.7665H17.8688V44.3295H17.3602ZM35.6292 38.3285V34.4835H36.1386V36.0626H38.137V34.4835H38.6464V38.3285H38.137V36.5166H36.1386V38.3285H35.6292ZM31.7607 34.4835H32.222V37.5281L34.2675 34.4835H34.7796V38.3285H34.3176V35.291L32.2692 38.3285H31.7607V34.4835ZM28.5075 34.4835H30.9157V38.3285H30.4063V34.9373H29.0169V36.9176C29.0169 37.3197 28.998 37.6141 28.9603 37.8014C28.9229 37.9883 28.8433 38.1344 28.7232 38.2383C28.6024 38.3421 28.4492 38.394 28.2639 38.394C28.1519 38.394 28.0178 38.3735 27.8602 38.3314L27.9462 37.8801C28.0302 37.9151 28.102 37.9328 28.1619 37.9328C28.2774 37.9328 28.3634 37.889 28.4215 37.8032C28.4787 37.7161 28.5075 37.5121 28.5075 37.1907V34.4835ZM25.2128 36.7494H26.5171L26.1153 35.6849C25.9933 35.3615 25.9022 35.096 25.843 34.8874C25.7938 35.1343 25.7249 35.3788 25.6353 35.6222L25.2128 36.7494ZM24.1036 38.3285L25.5808 34.4835H26.1286L27.7026 38.3285H27.1225L26.674 37.1639H25.0659L24.6442 38.3285H24.1036ZM20.552 38.3285L22.0399 36.3251L20.7282 34.4835H21.3336L22.0319 35.4701C22.1769 35.6741 22.2799 35.8317 22.3407 35.9418C22.4267 35.8022 22.5277 35.6563 22.645 35.504L23.4195 34.4835H23.9728L22.6217 36.2956L24.0774 38.3285H23.4481L22.4803 36.9571C22.4258 36.8784 22.3704 36.7924 22.3121 36.7001C22.2261 36.8398 22.1653 36.9356 22.1286 36.9886L21.1634 38.3285H20.552ZM18.047 36.7494H19.3512L18.9494 35.6849C18.8275 35.3615 18.7363 35.096 18.6772 34.8874C18.6279 35.1343 18.559 35.3788 18.4695 35.6222L18.047 36.7494ZM16.9375 38.3285L18.4149 34.4835H18.9627L20.5367 38.3285H19.9566L19.508 37.1639H17.9L17.4784 38.3285H16.9375Z" stroke="#F1DE3A" stroke-width="0.0339044" stroke-miterlimit="22.9256"/>
</svg>
